PathFileType	4	(X/Y/Z)	 s01c0001.trc
DataRate	CameraRate	NumFrames	NumMarkers	Units	OrigDataRate	OrigDataStartFrame	OrigNumFrames
200	200	4	49	mm	200	501	2000
Frame#	Time	racr			lacr			c7			jug			rlel			rdr			llel			ldr			s2			lic			ric			lasi			rasi			rpsi			lpsi			rgt			lgt			rth1			rth2			rth3			rth4			rlfc			rmfc			rsh1			rsh2			rsh3			rsh4			rlmal			rmmal			rcal			rtoe			rmt5			rmt1			lth1			lth2			lth4			lth3			llfc			lmfc			lsh1			lsh2			lsh3			lsh4			llmal			lmmal			lcal			ltoe			lmt1			lmt5			
		X1	Y1	Z1	X2	Y2	Z2	X3	Y3	Z3	X4	Y4	Z4	X5	Y5	Z5	X6	Y6	Z6	X7	Y7	Z7	X8	Y8	Z8	X9	Y9	Z9	X10	Y10	Z10	X11	Y11	Z11	X12	Y12	Z12	X13	Y13	Z13	X14	Y14	Z14	X15	Y15	Z15	X16	Y16	Z16	X17	Y17	Z17	X18	Y18	Z18	X19	Y19	Z19	X20	Y20	Z20	X21	Y21	Z21	X22	Y22	Z22	X23	Y23	Z23	X24	Y24	Z24	X25	Y25	Z25	X26	Y26	Z26	X27	Y27	Z27	X28	Y28	Z28	X29	Y29	Z29	X30	Y30	Z30	X31	Y31	Z31	X32	Y32	Z32	X33	Y33	Z33	X34	Y34	Z34	X35	Y35	Z35	X36	Y36	Z36	X37	Y37	Z37	X38	Y38	Z38	X39	Y39	Z39	X40	Y40	Z40	X41	Y41	Z41	X42	Y42	Z42	X43	Y43	Z43	X44	Y44	Z44	X45	Y45	Z45	X46	Y46	Z46	X47	Y47	Z47	X48	Y48	Z48	X49	Y49	Z49	
501	2.5050	496.228253	1501.382216	-347.752571	306.847717	1482.346755	-688.395775	378.549942	1530.507219	-496.997912	509.740611	1459.705360	-566.138983	556.447583	1253.852602	-183.230331	715.918842	1058.192063	-72.307572	210.434151	1209.319901	-782.521037	216.449217	1001.996683	-951.685647	341.280797	1020.144625	-461.285976	368.433799	1089.563489	-679.079498	545.261824	1061.898889	-394.262782	420.796255	1025.656735	-681.544879	573.915920	1014.553980	-446.867167	383.638116	1050.666405	-423.899407	327.953441	1053.978129	-513.747555	516.802580	928.298578	-361.872197	337.339572	922.595981	-683.876616	538.020316	808.977207	-351.422170	543.590865	726.898087	-361.072820	536.944495	637.342718	-376.119766	581.451301	730.549427	-400.603595	506.471760	517.345555	-388.685086	446.213215	493.077973	-477.436708	491.759737	401.802500	-339.543397	486.197320	317.574277	-344.280578	470.809083	229.567207	-353.307102	511.124646	317.049875	-400.803176	447.264962	99.165255	-371.521558	447.613779	122.359982	-459.434222	393.752697	67.857897	-415.840731	651.958751	91.609638	-492.320672	581.481979	50.510951	-391.195323	561.325036	62.237361	-504.567849	321.426654	803.241747	-689.895052	340.956593	717.081896	-690.112057	390.765217	726.996663	-709.945215	356.755534	633.885695	-677.602730	364.317137	520.286235	-654.506148	392.533097	489.606451	-547.477458	305.741229	409.919102	-666.548858	303.953566	323.291909	-657.608233	304.840217	238.373048	-639.650504	366.635553	322.647379	-655.525348	317.352211	104.830934	-620.067769	382.602837	116.339519	-558.711206	304.838181	64.549732	-560.235904	543.433248	96.891506	-692.444154	498.439647	65.732536	-617.321981	426.201147	57.279204	-707.109921	
502	2.5100	496.240267	1501.393953	-347.749502	306.873921	1482.349247	-688.407289	378.581078	1530.506495	-497.007103	509.772368	1459.721640	-566.135380	556.458559	1253.847053	-183.224179	715.904662	1058.197691	-72.314120	210.474966	1209.349480	-782.567155	216.548894	1002.033350	-951.751897	341.273778	1020.149009	-461.269264	368.438986	1089.561186	-679.078789	545.281960	1061.895669	-394.271243	420.798232	1025.658390	-681.551859	573.915731	1014.549715	-446.877856	383.648837	1050.669305	-423.903695	327.943175	1053.980588	-513.741527	516.806783	928.287502	-361.879546	337.341411	922.598580	-683.884694	538.023429	808.976024	-351.430664	543.606799	726.896032	-361.098141	536.955792	637.331470	-376.145870	581.452294	730.536627	-400.621864	506.486457	517.359866	-388.688363	446.198727	493.070727	-477.451427	491.777060	401.805851	-339.542732	486.234240	317.577284	-344.296495	470.806142	229.572449	-353.294768	511.140698	317.045220	-400.813120	447.277692	99.153988	-371.520207	447.614574	122.358800	-459.434749	393.738339	67.852967	-415.848437	651.956728	91.610989	-492.324036	581.483546	50.511945	-391.194076	561.326699	62.237174	-504.566341	321.428190	803.243531	-689.902629	340.949747	717.089775	-690.130707	390.769598	727.000778	-709.957424	356.761738	633.896226	-677.612040	364.317220	520.303070	-654.503781	392.547704	489.634620	-547.483568	305.747104	409.924013	-666.554617	303.951707	323.285283	-657.620930	304.850735	238.376303	-639.660375	366.644107	322.649432	-655.532752	317.358499	104.829006	-620.058264	382.630788	116.324209	-558.718724	304.840944	64.555929	-560.237081	543.444902	96.890634	-692.421966	498.439387	65.726706	-617.314395	426.212035	57.255359	-707.114392	
503	2.5150	496.256819	1501.399549	-347.750336	306.941816	1482.369872	-688.443876	378.603369	1530.540258	-496.970435	509.807586	1459.725826	-566.142571	556.485186	1253.851593	-183.258179	715.932325	1058.202606	-72.320397	210.510812	1209.395891	-782.567032	216.622412	1002.071339	-951.833107	341.287946	1020.138941	-461.289510	368.434206	1089.569630	-679.084132	545.280654	1061.910009	-394.294174	420.784944	1025.663829	-681.557118	573.919647	1014.549577	-446.894033	383.654312	1050.676425	-423.888448	327.954992	1053.967290	-513.748924	516.830607	928.288898	-361.888606	337.345608	922.594953	-683.880237	538.045763	808.983346	-351.458525	543.616129	726.908476	-361.092902	536.961800	637.332446	-376.140890	581.465526	730.548903	-400.639642	506.488955	517.351903	-388.688614	446.247614	493.075679	-477.466126	491.784610	401.810884	-339.557433	486.224549	317.574230	-344.279470	470.831266	229.579778	-353.304316	511.141608	317.042161	-400.827473	447.264935	99.165258	-371.521590	447.615370	122.357617	-459.435277	393.749167	67.859758	-415.857883	651.958351	91.607250	-492.323229	581.481671	50.511248	-391.194818	561.326753	62.237133	-504.566390	321.432303	803.242594	-689.907942	340.967540	717.077974	-690.125755	390.770284	727.005321	-709.967842	356.778995	633.892871	-677.619267	364.339004	520.293000	-654.524946	392.487086	489.649731	-547.428411	305.756130	409.924578	-666.564726	303.964845	323.291268	-657.625822	304.855662	238.379887	-639.667962	366.651626	322.652187	-655.538765	317.356929	104.825344	-620.055947	382.623428	116.334516	-558.712531	304.840614	64.556004	-560.237156	543.439519	96.890184	-692.414824	498.451522	65.722649	-617.320326	426.214178	57.255163	-707.133172	
504	2.5200	496.267475	1501.403247	-347.751258	306.971310	1482.388734	-688.441154	378.635810	1530.527365	-496.973864	509.822815	1459.746067	-566.145512	556.504236	1253.851288	-183.244112	715.928993	1058.191196	-72.313189	210.561321	1209.420823	-782.608394	216.701011	1002.114582	-951.917475	341.291693	1020.142697	-461.266613	368.441681	1089.576904	-679.091447	545.294031	1061.916505	-394.302485	420.797341	1025.660093	-681.566470	573.911683	1014.543921	-446.919908	383.663326	1050.686950	-423.897213	327.953578	1053.959218	-513.746415	516.844562	928.285208	-361.887798	337.351058	922.605474	-683.883548	538.073700	808.978727	-351.472174	543.642939	726.897397	-361.113801	536.971878	637.330052	-376.167301	581.470976	730.557071	-400.662138	506.487278	517.314876	-388.712795	446.180847	493.059757	-477.442046	491.802658	401.811536	-339.561739	486.234213	317.569566	-344.281292	470.846960	229.575067	-353.319004	511.132062	317.042854	-400.840861	447.285613	99.165768	-371.535453	447.614585	122.359111	-459.436465	393.757615	67.861806	-415.842119	651.955356	91.605513	-492.327371	581.495231	50.500788	-391.198966	561.325837	62.235304	-504.565570	321.440196	803.243726	-689.914572	340.971478	717.089215	-690.151890	390.777143	727.008437	-709.977466	356.786855	633.893974	-677.627214	364.357828	520.298908	-654.541872	392.532928	489.596808	-547.469783	305.758792	409.922212	-666.582221	303.969084	323.292316	-657.631718	304.857736	238.388248	-639.670721	366.657948	322.654379	-655.547141	317.347108	104.843587	-620.053586	382.631982	116.324703	-558.718019	304.838524	64.549676	-560.235828	543.447058	96.882342	-692.416059	498.453571	65.727820	-617.324992	426.207849	57.271976	-707.120657	
